<svg width="55" height="57" viewBox="0 0 55 57" fill="none" xmlns="http://www.w3.org/2000/svg">
<path id="Vector" d="M34.5004 7.31836V8.182H6.90909C3.36022 8.182 0.5 11.0422 0.5 14.5911V23.5453C0.5 24.2479 0.888588 24.799 1.40447 25.1429L1.41477 25.1498L1.42539 25.1562C8.35434 29.2955 16.0335 31.6712 23.7724 32.2392V34.3185C23.7724 36.5947 25.6326 38.4549 27.9087 38.4549C30.1849 38.4549 32.0451 36.5947 32.0451 34.3185V32.1391C39.4592 31.4425 46.7308 29.1157 53.3412 25.1597C53.9071 24.8416 54.2726 24.221 54.2726 23.5453L54.2726 14.6364L54.2725 14.6294C54.2233 11.0873 51.3684 8.22727 47.8182 8.22727H38.2276V7.36364C38.2276 3.58749 35.1401 0.5 31.364 0.5H23.3633C20.9605 0.5 18.8045 1.72741 17.5335 3.73075C16.9846 4.58608 17.2103 5.77697 18.1563 6.29479C19.0107 6.83096 20.1907 6.60186 20.705 5.66081C21.2977 4.7217 22.2707 4.182 23.3633 4.182H31.364C33.0878 4.182 34.5004 5.5945 34.5004 7.31836ZM6.90909 11.9545H47.8182C49.3148 11.9545 50.5 13.1398 50.5 14.6364V22.5286C36.1472 30.7026 18.5801 30.7026 4.22727 22.5286V14.6364C4.22727 13.1398 5.41251 11.9545 6.90909 11.9545ZM2.36364 28.5451C1.31477 28.5451 0.5 29.3599 0.5 30.4087V50.0909C0.5 53.6398 3.36022 56.5 6.90909 56.5H47.8182C51.3671 56.5 54.2273 53.6398 54.2273 50.0909V30.4087C54.2273 29.3599 53.4125 28.5451 52.3636 28.5451C51.3148 28.5451 50.5 29.3599 50.5 30.4087V50.0909C50.5 51.5875 49.3148 52.7727 47.8182 52.7727H6.90909C5.41251 52.7727 4.22727 51.5875 4.22727 50.0909V30.4087C4.22727 29.3599 3.41251 28.5451 2.36364 28.5451Z" fill="white" stroke="white"/>
</svg>
