<svg width="25" height="25" viewBox="0 0 25 25" fill="none" xmlns="http://www.w3.org/2000/svg">
<g id="call">
<mask id="mask0_8205_4074" style="mask-type:alpha" maskUnits="userSpaceOnUse" x="0" y="0" width="25" height="25">
<rect id="Bounding box" width="25" height="25" fill="#D9D9D9"/>
</mask>
<g mask="url(#mask0_8205_4074)">
<path id="call_2" d="M20.7812 21.875C18.6111 21.875 16.467 21.4019 14.349 20.4557C12.2309 19.5095 10.3038 18.1684 8.56771 16.4323C6.8316 14.6962 5.49045 12.7691 4.54427 10.651C3.59809 8.53299 3.125 6.38889 3.125 4.21875C3.125 3.90625 3.22917 3.64583 3.4375 3.4375C3.64583 3.22917 3.90625 3.125 4.21875 3.125H8.4375C8.68056 3.125 8.89757 3.20747 9.08854 3.3724C9.27951 3.53733 9.39236 3.73264 9.42708 3.95833L10.1042 7.60417C10.1389 7.88194 10.1302 8.11632 10.0781 8.30729C10.026 8.49826 9.93056 8.66319 9.79167 8.80208L7.26562 11.3542C7.61285 11.9965 8.02517 12.6172 8.5026 13.2161C8.98003 13.8151 9.50521 14.3924 10.0781 14.9479C10.6163 15.4861 11.1806 15.9852 11.7708 16.4453C12.3611 16.9054 12.9861 17.3264 13.6458 17.7083L16.0937 15.2604C16.25 15.1042 16.454 14.987 16.7057 14.9089C16.9575 14.8307 17.2049 14.809 17.4479 14.8438L21.0417 15.5729C21.2847 15.6424 21.4844 15.7682 21.6406 15.9505C21.7969 16.1328 21.875 16.3368 21.875 16.5625V20.7812C21.875 21.0938 21.7708 21.3542 21.5625 21.5625C21.3542 21.7708 21.0938 21.875 20.7812 21.875Z" fill="#43546A"/>
</g>
</g>
</svg>
