<svg width="28" height="28" viewBox="0 0 28 28" fill="none" xmlns="http://www.w3.org/2000/svg">
<g id="circle-play">
<path id="Primary" d="M2 14.5C2 11.1848 3.31696 8.00537 5.66117 5.66117C8.00537 3.31696 11.1848 2 14.5 2C17.8152 2 20.9946 3.31696 23.3388 5.66117C25.683 8.00537 27 11.1848 27 14.5C27 17.8152 25.683 20.9946 23.3388 23.3388C20.9946 25.683 17.8152 27 14.5 27C11.1848 27 8.00537 25.683 5.66117 23.3388C3.31696 20.9946 2 17.8152 2 14.5ZM11.1943 9.18262C10.8232 9.3877 10.5938 9.7832 10.5938 10.2031V18.7969C10.5938 19.2217 10.8232 19.6123 11.1943 19.8174C11.5654 20.0225 12.0146 20.0176 12.3809 19.793L19.4121 15.4961C19.7588 15.2812 19.9736 14.9053 19.9736 14.4951C19.9736 14.085 19.7588 13.709 19.4121 13.4941L12.3809 9.19727C12.0195 8.97754 11.5654 8.96777 11.1943 9.17285V9.18262Z" fill="#43546A"/>
</g>
</svg>
