<svg width="16" height="16" viewBox="0 0 16 16" fill="none" xmlns="http://www.w3.org/2000/svg">
<g id="Logo">
<path id="Initiator" d="M15.9997 8C15.9997 3.58176 12.418 0 7.99984 0C3.58169 0 0 3.58176 0 8C0 11.7517 2.58299 14.8998 6.0674 15.7645V10.4448H4.41783V8H6.0674V6.94656C6.0674 4.22368 7.29969 2.9616 9.97292 2.9616C10.4798 2.9616 11.3543 3.06112 11.7121 3.16032V5.37632C11.5233 5.35648 11.1953 5.34656 10.7879 5.34656C9.47629 5.34656 8.96942 5.84352 8.96942 7.13536V8H11.5825L11.1335 10.4448H8.96942V15.9414C12.9306 15.463 16 12.0902 16 8H15.9997Z" fill="#4267B2"/>
</g>
</svg>
