<svg width="17" height="18" viewBox="0 0 17 18" fill="none" xmlns="http://www.w3.org/2000/svg">
<path id="Globe" d="M13.1263 8.44988C13.092 7.30256 12.9156 6.16385 12.6011 5.05955C13.1406 4.87038 13.661 4.63125 14.1557 4.3453C15.1521 5.49478 15.7511 6.93258 15.8646 8.44674H13.1263V8.44988ZM12.6011 12.9372C12.9159 11.833 13.0923 10.6942 13.1263 9.54687H15.873C15.7576 11.0606 15.1588 12.4978 14.1641 13.6483C13.6662 13.3645 13.1424 13.1264 12.6011 12.9372ZM12.2356 13.983C12.6158 14.1166 12.9861 14.2766 13.3437 14.4619C12.7401 14.9656 12.0579 15.3676 11.3239 15.652C11.6953 15.1334 12.0021 14.5719 12.2377 13.9798L12.2356 13.983ZM5.21825 13.983C5.45277 14.5753 5.75855 15.1371 6.1289 15.6562C5.39493 15.3722 4.71316 14.9694 4.11119 14.464C4.46807 14.2756 4.83845 14.1138 5.2193 13.9798L5.21825 13.983ZM4.33071 9.54896C4.36501 10.6963 4.5414 11.835 4.85589 12.9393C4.31642 13.1285 3.79597 13.3676 3.30137 13.6535C2.30341 12.5034 1.70288 11.0646 1.58826 9.54896H4.33071ZM4.85589 5.06164C4.54116 6.16588 4.36477 7.30463 4.33071 8.45197H1.58826C1.70262 6.93911 2.29996 5.50233 3.29297 4.35158C3.79079 4.63541 4.31357 4.87344 4.85483 5.06269L4.85589 5.06164ZM5.22141 4.01589C4.84123 3.88226 4.47095 3.72221 4.11329 3.53694C4.71507 3.03395 5.39609 2.63327 6.1289 2.35105C5.75921 2.86884 5.45379 3.42925 5.2193 4.02007L5.22141 4.01589ZM11.326 2.35419C12.0606 2.63728 12.7431 3.03939 13.3458 3.54426C12.9887 3.73069 12.6184 3.89077 12.2377 4.02321C12.004 3.43163 11.6978 2.87105 11.326 2.35419ZM9.27994 4.59001V1.984C10.1839 2.50342 10.8629 3.33742 11.1863 4.32543C10.5599 4.46928 9.92198 4.55781 9.27994 4.59001ZM9.27994 8.44988V5.687C10.0456 5.65563 10.8065 5.55057 11.5518 5.37328C11.8331 6.3779 11.9915 7.41267 12.0234 8.45511H9.27994V8.44988ZM9.27994 12.3129V9.54896H12.0234C11.9915 10.5914 11.8331 11.6262 11.5518 12.6308C10.8066 12.4524 10.0457 12.3453 9.27994 12.3129ZM9.27994 13.4099C9.92197 13.4415 10.5599 13.5297 11.1863 13.6734C10.8632 14.6618 10.1841 15.4962 9.27994 16.0159V13.4099ZM8.17498 13.4099V16.0159C7.27101 15.4965 6.59198 14.6625 6.2686 13.6745C6.89535 13.5306 7.53259 13.442 8.17498 13.4099ZM8.17498 9.55001V12.3129C7.40943 12.3459 6.64874 12.4509 5.90308 12.6266C5.6225 11.6233 5.46451 10.59 5.43253 9.54896H8.17603L8.17498 9.55001ZM8.17498 5.687V8.44988H5.43253C5.46435 7.40674 5.6227 6.37126 5.90413 5.36596C6.64925 5.54571 7.40905 5.65323 8.17498 5.687ZM8.17498 4.59001C7.53295 4.55838 6.895 4.47019 6.2686 4.32648C6.59094 3.33732 7.27067 2.50256 8.17603 1.984L8.17498 4.59001ZM8.72851 0.764649C7.09257 0.764649 5.49336 1.24764 4.13313 2.15255C2.77289 3.05745 1.71271 4.34363 1.08666 5.84843C0.460615 7.35324 0.296812 9.00908 0.615969 10.6066C0.935126 12.2041 1.72291 13.6714 2.87969 14.8232C4.03648 15.9749 5.51032 16.7592 7.11483 17.077C8.71934 17.3948 10.3825 17.2317 11.8939 16.6084C13.4053 15.9851 14.6971 14.9295 15.606 13.5752C16.5149 12.2209 17 10.6287 17 8.99994C17.0001 7.91843 16.7863 6.84748 16.3706 5.84827C15.955 4.84906 15.3457 3.94115 14.5776 3.1764C13.8095 2.41166 12.8976 1.80506 11.894 1.39124C10.8904 0.97743 9.81478 0.764511 8.72851 0.764649Z" fill="black"/>
</svg>
