<svg xmlns="http://www.w3.org/2000/svg" width="17" height="17" viewBox="0 0 17 17" fill="none">
<path d="M13.1263 7.94988C13.092 6.80256 12.9156 5.66385 12.6011 4.55955C13.1406 4.37038 13.661 4.13125 14.1557 3.8453C15.1521 4.99478 15.7511 6.43258 15.8646 7.94674H13.1263V7.94988ZM12.6011 12.4372C12.9159 11.333 13.0923 10.1942 13.1263 9.04687H15.873C15.7576 10.5606 15.1588 11.9978 14.1641 13.1483C13.6662 12.8645 13.1424 12.6264 12.6011 12.4372ZM12.2356 13.483C12.6158 13.6166 12.9861 13.7766 13.3437 13.9619C12.7401 14.4656 12.0579 14.8676 11.3239 15.152C11.6953 14.6334 12.0021 14.0719 12.2377 13.4798L12.2356 13.483ZM5.21825 13.483C5.45277 14.0753 5.75855 14.6371 6.1289 15.1562C5.39493 14.8722 4.71316 14.4694 4.11119 13.964C4.46807 13.7756 4.83845 13.6138 5.2193 13.4798L5.21825 13.483ZM4.33071 9.04896C4.36501 10.1963 4.5414 11.335 4.85589 12.4393C4.31642 12.6285 3.79597 12.8676 3.30137 13.1535C2.30341 12.0034 1.70288 10.5646 1.58826 9.04896H4.33071ZM4.85589 4.56164C4.54116 5.66588 4.36477 6.80463 4.33071 7.95197H1.58826C1.70262 6.43911 2.29996 5.00233 3.29297 3.85158C3.79079 4.13541 4.31357 4.37344 4.85483 4.56269L4.85589 4.56164ZM5.22141 3.51589C4.84123 3.38226 4.47095 3.22221 4.11329 3.03694C4.71507 2.53395 5.39609 2.13327 6.1289 1.85105C5.75921 2.36884 5.45379 2.92925 5.2193 3.52007L5.22141 3.51589ZM11.326 1.85419C12.0606 2.13728 12.7431 2.53939 13.3458 3.04426C12.9887 3.23069 12.6184 3.39077 12.2377 3.52321C12.004 2.93163 11.6978 2.37105 11.326 1.85419ZM9.27994 4.09001V1.484C10.1839 2.00342 10.8629 2.83742 11.1863 3.82543C10.5599 3.96928 9.92198 4.05781 9.27994 4.09001ZM9.27994 7.94988V5.187C10.0456 5.15563 10.8065 5.05057 11.5518 4.87328C11.8331 5.8779 11.9915 6.91267 12.0234 7.95511H9.27994V7.94988ZM9.27994 11.8129V9.04896H12.0234C11.9915 10.0914 11.8331 11.1262 11.5518 12.1308C10.8066 11.9524 10.0457 11.8453 9.27994 11.8129ZM9.27994 12.9099C9.92197 12.9415 10.5599 13.0297 11.1863 13.1734C10.8632 14.1618 10.1841 14.9962 9.27994 15.5159V12.9099ZM8.17498 12.9099V15.5159C7.27101 14.9965 6.59198 14.1625 6.2686 13.1745C6.89535 13.0306 7.53259 12.942 8.17498 12.9099ZM8.17498 9.05001V11.8129C7.40943 11.8459 6.64874 11.9509 5.90308 12.1266C5.6225 11.1233 5.46451 10.09 5.43253 9.04896H8.17603L8.17498 9.05001ZM8.17498 5.187V7.94988H5.43253C5.46435 6.90674 5.6227 5.87126 5.90413 4.86596C6.64925 5.04571 7.40905 5.15323 8.17498 5.187ZM8.17498 4.09001C7.53295 4.05838 6.895 3.97019 6.2686 3.82648C6.59094 2.83732 7.27067 2.00256 8.17603 1.484L8.17498 4.09001ZM8.72851 0.264649C7.09257 0.264649 5.49336 0.74764 4.13313 1.65255C2.77289 2.55745 1.71271 3.84363 1.08666 5.34843C0.460615 6.85324 0.296812 8.50908 0.615969 10.1066C0.935126 11.7041 1.72291 13.1714 2.87969 14.3232C4.03648 15.4749 5.51032 16.2592 7.11483 16.577C8.71934 16.8948 10.3825 16.7317 11.8939 16.1084C13.4053 15.4851 14.6971 14.4295 15.606 13.0752C16.5149 11.7209 17 10.1287 17 8.49994C17.0001 7.41843 16.7863 6.34748 16.3706 5.34827C15.955 4.34906 15.3457 3.44115 14.5776 2.6764C13.8095 1.91166 12.8976 1.30506 11.894 0.891243C10.8904 0.47743 9.81478 0.264511 8.72851 0.264649Z" fill="#ffffff"/>
</svg>