<svg xmlns="http://www.w3.org/2000/svg" width="18" height="17" viewBox="0 0 18 17" fill="none">
  <g clip-path="url(#clip0_12153_484)">
    <path d="M17.9937 8.48242C17.9937 9.04492 17.525 9.48555 16.9937 9.48555H15.9937L16.0156 14.4918C16.0156 14.5762 16.0094 14.6605 16 14.7449V15.248C16 15.9387 15.4406 16.498 14.75 16.498H14.25C14.2156 16.498 14.1813 16.498 14.1469 16.4949C14.1031 16.498 14.0594 16.498 14.0156 16.498H13H12.25C11.5594 16.498 11 15.9387 11 15.248V14.498V12.498C11 11.9449 10.5531 11.498 10 11.498H8C7.44688 11.498 7 11.9449 7 12.498V14.498V15.248C7 15.9387 6.44063 16.498 5.75 16.498H5H4.00313C3.95625 16.498 3.90937 16.4949 3.8625 16.4918C3.825 16.4949 3.7875 16.498 3.75 16.498H3.25C2.55938 16.498 2 15.9387 2 15.248V11.748C2 11.7199 2 11.6887 2.00312 11.6605V9.48555H1C0.4375 9.48555 0 9.04805 0 8.48242C0 8.20117 0.09375 7.95117 0.3125 7.73242L8.325 0.748047C8.54375 0.529297 8.79375 0.498047 9.0125 0.498047C9.23125 0.498047 9.48125 0.560547 9.66875 0.716797L17.65 7.73242C17.9 7.95117 18.025 8.20117 17.9937 8.48242Z" fill="#37583C"/>
  </g>
  <defs>
    <clipPath id="clip0_12153_484">
      <rect width="18" height="16" fill="white" transform="translate(0 0.498047)"/>
    </clipPath>
  </defs>
</svg>