<svg width="20" height="20" viewBox="0 0 20 20" fill="none" xmlns="http://www.w3.org/2000/svg">
<g id="Group 14">
<path id="Vector" d="M14.4185 0.149902H5.58853C2.59098 0.149902 0.150391 2.59049 0.150391 5.58804V14.4117C0.150391 17.4093 2.59098 19.8499 5.58853 19.8499H14.4122C17.4097 19.8499 19.8503 17.4093 19.8503 14.4117V5.58804C19.8503 2.59049 17.416 0.149902 14.4185 0.149902ZM18.1044 14.418C18.1044 16.4518 16.4523 18.1039 14.4185 18.1039H5.58853C3.5547 18.1039 1.90261 16.4518 1.90261 14.418V5.58804C1.90261 3.55421 3.5547 1.90212 5.58853 1.90212H14.4122C16.446 1.90212 18.0981 3.55421 18.0981 5.58804L18.1044 14.418Z" fill="url(#paint0_linear_8205_4092)"/>
<path id="Vector_2" d="M9.99998 4.9248C7.20269 4.9248 4.9248 7.20269 4.9248 9.99998C4.9248 12.7973 7.20269 15.0752 9.99998 15.0752C12.7973 15.0752 15.0752 12.7973 15.0752 9.99998C15.0752 7.20269 12.8035 4.9248 9.99998 4.9248ZM9.99998 13.3292C8.16641 13.3292 6.67077 11.8336 6.67077 9.99998C6.67077 8.16641 8.16641 6.67077 9.99998 6.67077C11.8336 6.67077 13.3292 8.16641 13.3292 9.99998C13.3292 11.8398 11.8398 13.3292 9.99998 13.3292Z" fill="url(#paint1_linear_8205_4092)"/>
<path id="Vector_3" d="M15.2887 3.44189C14.9508 3.44189 14.6191 3.57957 14.3813 3.81737C14.1435 4.05517 14.0059 4.38684 14.0059 4.72477C14.0059 5.0627 14.1435 5.39437 14.3813 5.63217C14.6191 5.86997 14.9508 6.00764 15.2887 6.00764C15.6267 6.00764 15.9583 5.86997 16.1961 5.63217C16.4339 5.39437 16.5716 5.0627 16.5716 4.72477C16.5716 4.38684 16.4339 4.05517 16.1961 3.81737C15.9583 3.57957 15.6267 3.44189 15.2887 3.44189Z" fill="url(#paint2_linear_8205_4092)"/>
</g>
<defs>
<linearGradient id="paint0_linear_8205_4092" x1="10.0023" y1="0.968189" x2="10.0023" y2="19.0466" gradientUnits="userSpaceOnUse">
<stop stop-color="#EA8928"/>
<stop offset="1" stop-color="#CF2B8F"/>
</linearGradient>
<linearGradient id="paint1_linear_8205_4092" x1="10.0019" y1="0.968293" x2="10.0019" y2="19.0468" gradientUnits="userSpaceOnUse">
<stop stop-color="#EA8928"/>
<stop offset="1" stop-color="#CF2B8F"/>
</linearGradient>
<linearGradient id="paint2_linear_8205_4092" x1="15.2914" y1="0.968512" x2="15.2914" y2="19.047" gradientUnits="userSpaceOnUse">
<stop stop-color="#EA8928"/>
<stop offset="1" stop-color="#CF2B8F"/>
</linearGradient>
</defs>
</svg>
