<svg width="16" height="16" viewBox="0 0 16 16" fill="none" xmlns="http://www.w3.org/2000/svg">
<g id="XMLID_801_">
<path id="XMLID_802_" d="M3.72084 5.14111H0.50812C0.365535 5.14111 0.25 5.25693 0.25 5.39975V15.7414C0.25 15.8843 0.365535 16 0.50812 16H3.72084C3.86343 16 3.97896 15.8843 3.97896 15.7414V5.39975C3.97896 5.25693 3.86343 5.14111 3.72084 5.14111Z" fill="#0E76A8"/>
<path id="XMLID_803_" d="M2.11999 0C0.951019 0 0 0.951879 0 2.12189C0 3.29242 0.951019 4.24466 2.11999 4.24466C3.28804 4.24466 4.23828 3.29237 4.23828 2.12189C4.23834 0.951879 3.28804 0 2.11999 0Z" fill="#0E76A8"/>
<path id="XMLID_804_" d="M11.8933 4.8833C10.6029 4.8833 9.64907 5.43911 9.07052 6.07064V5.39897C9.07052 5.25615 8.95499 5.14033 8.8124 5.14033H5.73566C5.59307 5.14033 5.47754 5.25615 5.47754 5.39897V15.7406C5.47754 15.8835 5.59307 15.9993 5.73566 15.9993H8.94136C9.08395 15.9993 9.19948 15.8835 9.19948 15.7406V10.6239C9.19948 8.89969 9.66688 8.22796 10.8664 8.22796C12.1728 8.22796 12.2766 9.30482 12.2766 10.7126V15.7407C12.2766 15.8836 12.3922 15.9993 12.5348 15.9993H15.7416C15.8842 15.9993 15.9998 15.8836 15.9998 15.7407V10.0681C15.9998 7.50425 15.5119 4.8833 11.8933 4.8833Z" fill="#0E76A8"/>
</g>
</svg>
