<svg xmlns="http://www.w3.org/2000/svg" width="21" height="22" viewBox="0 0 21 22" fill="none">
  <path d="M14.4375 0.498047C13.9084 0.498047 13.4285 0.817969 13.2234 1.31016C13.0184 1.80234 13.1332 2.36426 13.5064 2.7416L15.2045 4.43555L8.26055 11.3836C7.74785 11.8963 7.74785 12.7289 8.26055 13.2416C8.77324 13.7543 9.60586 13.7543 10.1186 13.2416L17.0625 6.29355L18.7605 7.9916C19.1379 8.36895 19.6998 8.47969 20.192 8.27461C20.6842 8.06953 21.0041 7.59375 21.0041 7.06055V1.81055C21.0041 1.08457 20.4176 0.498047 19.6916 0.498047L14.4375 0.498047ZM3.28125 1.81055C1.46836 1.81055 0 3.27891 0 5.0918V18.2168C0 20.0297 1.46836 21.498 3.28125 21.498H16.4062C18.2191 21.498 19.6875 20.0297 19.6875 18.2168V13.623C19.6875 12.8971 19.101 12.3105 18.375 12.3105C17.649 12.3105 17.0625 12.8971 17.0625 13.623V18.2168C17.0625 18.5777 16.7672 18.873 16.4062 18.873H3.28125C2.92031 18.873 2.625 18.5777 2.625 18.2168V5.0918C2.625 4.73086 2.92031 4.43555 3.28125 4.43555H7.875C8.60098 4.43555 9.1875 3.84902 9.1875 3.12305C9.1875 2.39707 8.60098 1.81055 7.875 1.81055H3.28125Z" fill="#37583C"/>
</svg>