<svg width="25" height="25" viewBox="0 0 25 25" fill="none" xmlns="http://www.w3.org/2000/svg">
<g id="location_on">
<mask id="mask0_8205_4080" style="mask-type:alpha" maskUnits="userSpaceOnUse" x="0" y="0" width="25" height="25">
<rect id="Bounding box" width="25" height="25" fill="#D9D9D9"/>
</mask>
<g mask="url(#mask0_8205_4080)">
<path id="location_on_2" d="M12.4993 12.5002C13.0723 12.5002 13.5627 12.2962 13.9707 11.8882C14.3787 11.4802 14.5827 10.9897 14.5827 10.4168C14.5827 9.84391 14.3787 9.35346 13.9707 8.94548C13.5627 8.53749 13.0723 8.3335 12.4993 8.3335C11.9264 8.3335 11.436 8.53749 11.028 8.94548C10.62 9.35346 10.416 9.84391 10.416 10.4168C10.416 10.9897 10.62 11.4802 11.028 11.8882C11.436 12.2962 11.9264 12.5002 12.4993 12.5002ZM12.4993 22.9168C9.70421 20.5384 7.61654 18.3292 6.23633 16.2892C4.85612 14.2493 4.16602 12.3613 4.16602 10.6252C4.16602 8.021 5.00369 5.94634 6.67904 4.4012C8.35438 2.85607 10.2945 2.0835 12.4993 2.0835C14.7042 2.0835 16.6443 2.85607 18.3197 4.4012C19.995 5.94634 20.8327 8.021 20.8327 10.6252C20.8327 12.3613 20.1426 14.2493 18.7624 16.2892C17.3822 18.3292 15.2945 20.5384 12.4993 22.9168Z" fill="#43546A"/>
</g>
</g>
</svg>
