<svg width="290" height="81" viewBox="0 0 290 81" fill="none" xmlns="http://www.w3.org/2000/svg">
<path d="M105.866 66.3874H105.28V68.8151H104.377V63.4785H105.943C107.149 63.4785 107.536 64.1058 107.536 64.9321C107.552 65.204 107.479 65.4735 107.328 65.7003C107.178 65.9271 106.958 66.0989 106.701 66.1899L109.051 68.8151H107.94L105.866 66.3874ZM105.892 64.2783H105.28V65.5693H105.892C106.443 65.5693 106.624 65.3204 106.624 64.9238C106.624 64.5372 106.451 64.2783 105.892 64.2783Z" fill="#8EA986"/>
<path d="M110.455 63.4785H113.657V64.3132H111.359V65.4664H112.848V66.268H111.359V67.9804H113.863V68.8151H110.455L110.455 63.4785Z" fill="#8EA986"/>
<path d="M115.647 66.4473H117.766V67.1708H115.647L115.647 66.4473Z" fill="#8EA986"/>
<path d="M119.784 63.4785H122.986V64.3132H120.688V65.4664H122.177V66.268H120.688V67.9804H123.193V68.8151H119.784V63.4785Z" fill="#8EA986"/>
<path d="M126.913 68.8825C126.231 68.8562 125.568 68.6483 124.993 68.2802V67.3592C125.534 67.7778 126.187 68.0267 126.87 68.0744C127.326 68.0744 127.765 67.8935 127.765 67.3774C127.765 66.2242 125.131 66.5511 125.131 64.8203C125.131 63.9243 125.88 63.4082 126.818 63.4082C127.415 63.4186 127.997 63.5975 128.497 63.9243V64.8203C128.023 64.4624 127.454 64.2528 126.862 64.218C126.396 64.218 126.035 64.4154 126.035 64.8203C126.035 65.8276 128.66 65.577 128.66 67.3774C128.66 68.461 127.834 68.8825 126.913 68.8825Z" fill="#8EA986"/>
<path d="M133.035 68.8151H132.14V64.3132H130.152V63.4785H135.016V64.3132H133.035L133.035 68.8151Z" fill="#8EA986"/>
<path d="M135.018 67.8506H136.051V68.8064H135.018L135.018 67.8506Z" fill="#8EA986"/>
<path d="M140.728 68.342C141.046 67.9288 142.992 65.8878 142.992 65.0017C143 64.902 142.986 64.8018 142.951 64.708C142.916 64.6143 142.861 64.5295 142.79 64.4596C142.718 64.3897 142.632 64.3364 142.538 64.3036C142.443 64.2708 142.343 64.2593 142.243 64.2699C141.667 64.2916 141.118 64.5175 140.693 64.9071V63.9778C141.129 63.5971 141.69 63.3914 142.269 63.4004C142.479 63.3833 142.691 63.4113 142.889 63.4824C143.088 63.5535 143.269 63.6662 143.42 63.8129C143.572 63.9596 143.69 64.1369 143.768 64.333C143.846 64.5291 143.88 64.7396 143.87 64.9502C143.87 66.1284 142.759 67.197 142.08 67.9885L142.759 67.9802H144.18V68.8149H140.728V68.342Z" fill="#8EA986"/>
<path d="M147.935 68.883C146.79 68.883 145.912 67.9455 145.912 66.1384C145.912 64.3397 146.799 63.4004 147.935 63.4004C149.071 63.4004 149.958 64.3396 149.958 66.1467C149.958 67.9454 149.071 68.883 147.935 68.883ZM147.935 64.2533C147.289 64.2533 146.833 64.9934 146.833 66.1384C146.833 67.3 147.289 68.0317 147.935 68.0317C148.58 68.0317 149.028 67.3 149.028 66.1467C149.028 64.9934 148.58 64.2533 147.935 64.2533Z" fill="#8EA986"/>
<path d="M151.818 68.342C152.137 67.9288 154.081 65.8878 154.081 65.0017C154.09 64.902 154.076 64.8018 154.041 64.708C154.006 64.6143 153.951 64.5295 153.88 64.4596C153.808 64.3897 153.722 64.3364 153.627 64.3036C153.533 64.2708 153.432 64.2593 153.333 64.2699C152.757 64.2914 152.208 64.5173 151.783 64.9071V63.9778C152.219 63.5971 152.78 63.3913 153.359 63.4004C153.569 63.3833 153.78 63.4113 153.979 63.4824C154.177 63.5536 154.358 63.6663 154.51 63.813C154.661 63.9596 154.78 64.137 154.857 64.3331C154.935 64.5292 154.97 64.7396 154.959 64.9502C154.959 66.1284 153.849 67.197 153.169 67.9885L153.849 67.9802H155.27V68.8149H151.818L151.818 68.342Z" fill="#8EA986"/>
<path d="M157.089 68.342C157.407 67.9288 159.352 65.8878 159.352 65.0017C159.36 64.902 159.347 64.8018 159.312 64.708C159.277 64.6143 159.222 64.5295 159.15 64.4596C159.079 64.3897 158.992 64.3364 158.898 64.3036C158.804 64.2708 158.703 64.2593 158.604 64.2699C158.028 64.2914 157.478 64.5173 157.054 64.9071V63.9778C157.489 63.5971 158.051 63.3914 158.629 63.4004C158.839 63.3833 159.051 63.4113 159.249 63.4824C159.448 63.5536 159.629 63.6663 159.78 63.813C159.932 63.9596 160.05 64.137 160.128 64.3331C160.205 64.5292 160.24 64.7396 160.23 64.9502C160.23 66.1284 159.12 67.197 158.439 67.9885L159.12 67.9802H160.54V68.8149H157.089L157.089 68.342Z" fill="#8EA986"/>
<path d="M193.042 68.8008C190.176 68.8008 187.859 67.0185 187.859 64.08C187.859 61.1402 190.131 59.373 192.952 59.373C194.513 59.4225 196.026 59.9285 197.302 60.8286V62.3417C196.029 61.4386 194.537 60.8951 192.981 60.7681C192.526 60.7327 192.069 60.7922 191.638 60.943C191.207 61.0937 190.812 61.3324 190.479 61.6438C190.145 61.9553 189.88 62.3327 189.7 62.7521C189.52 63.1715 189.429 63.6238 189.433 64.0801C189.433 66.1879 191.111 67.3605 193.07 67.3605C194.077 67.3538 195.056 67.0379 195.877 66.4556V63.9606H197.481V67.182C196.228 68.2112 194.662 68.7823 193.042 68.8008Z" fill="#231F20"/>
<path d="M207.404 68.8164C204.553 68.8164 202.282 66.9311 202.282 64.0806C202.282 61.2437 204.568 59.3584 207.404 59.3584C210.226 59.3584 212.512 61.2437 212.512 64.0943C212.512 66.9312 210.226 68.8164 207.404 68.8164ZM207.404 60.829C206.769 60.8697 206.159 61.0953 205.65 61.4779C205.142 61.8605 204.756 62.3835 204.54 62.9825C204.325 63.5816 204.289 64.2305 204.438 64.8495C204.587 65.4685 204.913 66.0306 205.377 66.4666C205.841 66.9025 206.422 67.1934 207.049 67.3034C207.676 67.4134 208.321 67.3377 208.906 67.0856C209.49 66.8336 209.988 66.4161 210.339 65.8846C210.689 65.3532 210.877 64.7309 210.878 64.0943C210.88 63.6471 210.789 63.2044 210.613 62.7936C210.436 62.3828 210.177 62.0128 209.851 61.7065C209.525 61.4002 209.14 61.1643 208.719 61.0133C208.298 60.8624 207.85 60.7996 207.404 60.829Z" fill="#231F20"/>
<path d="M217.657 59.4912H219.216V67.2562H223.269V68.6966H217.657V59.4912Z" fill="#231F20"/>
<path d="M229.736 62.9666H232.216V64.3466H229.736V68.6966H228.178V59.4912H233.775V60.9316H229.736L229.736 62.9666Z" fill="#231F20"/>
<path d="M249.712 68.8164C246.905 68.8164 244.634 67.0053 244.634 64.0806C244.634 61.1696 246.905 59.3584 249.712 59.3584C251.316 59.4282 252.86 59.9879 254.136 60.9622V62.6401C252.882 61.597 251.337 60.9647 249.712 60.829C249.267 60.8025 248.822 60.8671 248.404 61.0188C247.986 61.1706 247.603 61.4063 247.279 61.7114C246.955 62.0166 246.697 62.3848 246.52 62.7934C246.344 63.202 246.253 63.6424 246.253 64.0874C246.253 64.5325 246.344 64.9728 246.52 65.3814C246.697 65.79 246.955 66.1582 247.279 66.4634C247.603 66.7686 247.986 67.0043 248.404 67.156C248.822 67.3078 249.267 67.3724 249.712 67.3458C251.325 67.1944 252.861 66.5813 254.136 65.58L254.166 67.1975C252.885 68.186 251.328 68.7518 249.712 68.8164Z" fill="#231F20"/>
<path d="M259.28 59.4912H260.839V67.2562H264.892V68.6966H259.28V59.4912Z" fill="#231F20"/>
<path d="M273.498 68.8161C270.693 68.8161 269.089 67.064 269.089 64.2285V59.4912H270.647V64.2285C270.647 66.1879 271.657 67.3455 273.498 67.3455C275.354 67.3455 276.349 66.203 276.349 64.2422V59.5063H277.937V64.2422C277.937 67.064 276.318 68.8161 273.498 68.8161Z" fill="#231F20"/>
<path d="M286.377 68.6971H283.498V59.5068H286.037C287.937 59.5068 288.798 60.4282 288.798 61.8672C288.829 62.2244 288.756 62.5828 288.587 62.8991C288.419 63.2154 288.162 63.4761 287.848 63.6495C288.339 63.7908 288.766 64.0967 289.058 64.5157C289.35 64.9348 289.488 65.4416 289.451 65.9509C289.451 67.6577 288.515 68.6971 286.377 68.6971ZM286.037 60.8882H285.026V63.1003H286.066C287.031 63.1003 287.269 62.6252 287.269 62.0018C287.269 61.2891 286.942 60.8882 286.037 60.8882ZM286.334 64.3924H285.026V67.2869H286.334C286.542 67.3185 286.756 67.3024 286.957 67.2397C287.159 67.1771 287.344 67.0697 287.498 66.9254C287.653 66.7812 287.772 66.6039 287.848 66.4068C287.924 66.2097 287.955 65.998 287.937 65.7875C287.937 64.9856 287.447 64.3924 286.334 64.3924Z" fill="#231F20"/>
<path d="M126.206 18.6242C126.54 20.8935 126.101 23.2092 124.959 25.1987C124.829 25.4301 124.644 25.6254 124.419 25.7668C124.195 25.9082 123.938 25.9911 123.673 26.008C123.409 26.0249 123.144 25.9753 122.903 25.8637C122.662 25.7521 122.453 25.582 122.295 25.369C121.9 24.8444 121.612 24.2478 121.445 23.6128C120.949 21.8894 120.011 20.3258 118.724 19.0773C117.817 18.1711 115.152 18.0571 114.019 18.0571C111.921 18.0571 109.257 19.985 109.087 22.0817C109.022 23.1262 109.098 24.1747 109.314 25.1987C109.481 25.9026 109.834 26.5488 110.335 27.0703C112.137 28.8958 114.354 30.257 116.797 31.0372C118.936 31.8294 120.914 33.0011 122.636 34.4961C124.13 35.779 125.246 37.4441 125.867 39.313C126.339 41.0637 126.3 42.9132 125.753 44.6421C124.903 48.4964 121.955 51.0477 117.874 51.9539C115.563 52.4739 113.171 52.5127 110.845 52.0679C110.3 51.9489 109.769 51.7778 109.257 51.5571C108.181 51.104 107.161 50.5932 106.14 50.1401C103.93 49.1198 103.192 47.5888 103.759 45.2092L104.439 42.3751C104.551 41.9733 104.723 41.5909 104.95 41.2409C105.074 41.0274 105.251 40.8502 105.465 40.727C105.679 40.6039 105.922 40.539 106.169 40.539C106.415 40.539 106.658 40.6039 106.872 40.727C107.086 40.8502 107.263 41.0274 107.387 41.2409C107.897 42.2048 108.237 43.2813 108.69 44.3579C109.108 45.5497 109.62 46.7063 110.221 47.8167C111.638 49.4041 111.809 49.6869 113.679 49.6869C114.871 49.8003 116.074 49.743 117.25 49.5166C119.234 48.8933 120.537 46.5686 120.651 43.6219C120.786 42.3539 120.512 41.0761 119.87 39.9747C119.228 38.8733 118.25 38.006 117.08 37.499C113.598 35.6842 110.262 33.5999 107.105 31.2651C105.818 30.1394 104.792 28.7462 104.1 27.1828C103.954 26.8992 103.858 26.5927 103.816 26.2766C103.516 24.4836 103.749 22.6422 104.484 20.9798C105.22 19.3175 106.426 17.907 107.954 16.9229C110.448 15.2793 115.946 15.223 118.441 15.9603C119.343 16.2947 120.185 16.7733 120.935 17.3774C122.295 18.8508 122.862 18.3976 124.562 17.3774C124.641 17.2452 124.766 17.148 124.914 17.1056C125.061 17.0633 125.22 17.0789 125.356 17.1495C125.606 17.3087 125.814 17.526 125.962 17.7827C126.11 18.0395 126.193 18.3281 126.206 18.6242Z" fill="#231F20"/>
<path d="M132.838 31.5475L132.61 31.3772C132.553 31.3772 132.1 31.0943 132.044 31.0943L131.986 31.0367C131.859 30.9382 131.745 30.8242 131.647 30.6975C131.583 30.5764 131.545 30.4433 131.535 30.3067C131.525 30.1701 131.543 30.0329 131.589 29.9038H131.533C131.986 29.393 132.327 28.9399 132.78 28.4291C134.764 26.2184 134.255 25.1419 135.672 24.2356C138.109 22.7046 137.712 26.0495 138.279 27.24C138.618 28.09 139.412 27.9197 140.376 27.8634C141.585 27.7963 142.797 27.8151 144.004 27.9197C144.391 27.9451 144.753 28.1178 145.017 28.4023C145.28 28.6868 145.425 29.0615 145.421 29.4493C145.535 30.243 141.34 31.1506 139.923 32.1146C139.129 32.6817 139.242 35.2878 139.185 36.7049C139.071 39.1435 139.185 41.5808 139.185 44.8118C139.185 46.3991 139.639 48.8927 141.17 48.8927C142.813 48.8927 143.38 46.8522 144.854 47.2491C145.003 47.2891 145.14 47.3672 145.25 47.4756C145.448 47.8187 145.509 48.2238 145.421 48.6098C145.237 49.4202 144.75 50.1296 144.06 50.5926C143.079 51.246 141.971 51.6848 140.809 51.8802C139.646 52.0757 138.456 52.0234 137.315 51.7268C135.558 51.216 133.914 48.7224 133.744 46.9085C133.177 42.8276 133.744 37.7265 133.914 33.8145C134.01 33.3708 133.956 32.9078 133.762 32.4977C133.567 32.0876 133.242 31.7535 132.838 31.5475Z" fill="#231F20"/>
<path d="M154.603 46.8529L154.773 47.0232C154.817 47.1246 154.875 47.2197 154.944 47.306C155.35 48.1227 155.414 49.0671 155.124 49.9315C154.833 50.7959 154.211 51.5094 153.395 51.9152C153.326 51.9492 153.257 51.9809 153.186 52.0103C152.053 52.4071 150.125 51.1603 149.615 50.3667C149.411 49.88 149.327 49.3519 149.369 48.8262C149.41 48.3004 149.577 47.7921 149.854 47.3434C150.131 46.8947 150.511 46.5186 150.963 46.246C151.414 45.9735 151.924 45.8125 152.45 45.7764C152.866 45.788 153.274 45.8903 153.646 46.0763C154.018 46.2623 154.345 46.5273 154.603 46.8529Z" fill="#231F20"/>
<path d="M179.089 39.2002C178.919 36.6489 178.919 34.0414 178.863 31.4915C178.807 30.0744 178.693 28.7137 178.693 27.3529C178.636 25.8796 178.693 24.4048 178.693 22.9315C178.701 22.2822 178.625 21.6345 178.466 21.005C178.239 19.7568 177.786 19.36 176.54 19.2474C175.972 19.1911 175.405 19.3037 174.838 19.1911C174.276 19.0996 173.724 18.9472 173.195 18.7366C172.874 18.5427 172.623 18.2509 172.48 17.9042C172.338 17.5574 172.31 17.1739 172.401 16.8101C172.493 16.4987 172.678 16.223 172.931 16.0201C173.185 15.8173 173.494 15.6972 173.818 15.6759C174.216 15.6384 174.616 15.6574 175.009 15.7322C176.708 15.9025 178.41 16.1291 180.11 16.2993C181.49 16.4405 182.884 16.3832 184.248 16.1291C185.603 15.9685 186.971 15.9497 188.329 16.0728C188.703 16.0939 189.067 16.2023 189.392 16.3892C189.717 16.5762 189.993 16.8364 190.199 17.1493C190.337 17.3233 190.428 17.5293 190.465 17.7482C190.502 17.967 190.483 18.1916 190.409 18.401C190.336 18.6104 190.21 18.7978 190.045 18.9458C189.88 19.0938 189.68 19.1975 189.463 19.2474C188.754 19.4012 188.034 19.4958 187.309 19.5303C185.155 19.6443 184.475 20.3816 184.475 22.5347C184.475 31.2073 184.419 39.8236 184.361 48.4399C184.361 50.1398 184.304 51.7271 184.248 53.541C184.11 55.7365 183.572 57.8882 182.661 59.8903C182.11 61.2079 181.251 62.3743 180.156 63.2915C179.062 64.2087 177.763 64.85 176.369 65.1617C174.47 65.5992 172.534 65.8648 170.587 65.9554C170.361 65.9554 170.134 65.8977 169.85 65.8977C166.506 65.6149 166.222 62.2136 167.47 60.4561C167.64 60.1802 167.87 59.9464 168.143 59.772C168.416 59.5976 168.724 59.4872 169.046 59.449C169.367 59.4109 169.694 59.4459 170 59.5516C170.306 59.6573 170.584 59.8308 170.814 60.0592C171.04 60.2872 171.267 60.57 171.495 60.7966C172.392 61.6326 173.516 62.1849 174.726 62.3839C175.32 62.5682 175.962 62.5182 176.52 62.2443C177.078 61.9703 177.511 61.4931 177.729 60.9105C178.163 60.133 178.47 59.2906 178.636 58.4156C178.836 56.969 178.95 55.5118 178.977 54.0518C179.033 53.4847 179.033 50.6506 179.033 50.0835C179.033 47.4196 179.147 47.0228 179.147 44.3576C179.238 42.639 179.219 40.9163 179.089 39.2002Z" fill="#231F20"/>
<path d="M211.682 47.4763C211.206 48.2268 210.613 48.8965 209.926 49.4604L209.301 49.7996L209.075 50.0275C205.844 52.6914 202.16 52.4648 198.476 51.3306C196.492 50.7072 195.131 49.0636 193.94 47.4762C190.313 42.658 191.503 35.8556 193.94 32.2278C195.041 30.7035 196.585 29.5557 198.362 28.9405C199.319 28.5613 200.305 28.2578 201.31 28.0329C201.493 27.9584 201.683 27.9019 201.877 27.864L202.216 27.8063C203.804 27.6374 209.019 28.9968 210.209 29.9608C212.306 31.6607 213.781 33.7588 213.781 36.5366C213.781 37.2163 213.837 38.6897 213.837 39.541C213.944 42.3438 213.192 45.1124 211.682 47.4763ZM207.716 34.7228C207.215 33.6715 206.566 32.6976 205.788 31.831C205.44 31.3316 204.955 30.9431 204.392 30.712C203.829 30.4809 203.211 30.417 202.613 30.5279C201.494 30.6768 200.457 31.1954 199.666 32.0012C198.629 32.9211 197.881 34.1221 197.512 35.4587C197.236 36.8439 197.046 38.2449 196.945 39.6536C196.734 41.3798 196.997 43.131 197.706 44.7189C198.415 46.3069 199.543 47.6717 200.969 48.6668C201.44 49.0675 202.033 49.2968 202.65 49.3173C203.268 49.3377 203.875 49.1481 204.371 48.7794C205.695 48.0106 206.788 46.9001 207.536 45.564C208.284 44.2279 208.659 42.7154 208.622 41.1846C208.566 39.4834 208.509 36.479 207.716 34.7228Z" fill="#231F20"/>
<path d="M232.428 27.864C233.597 27.6935 234.792 27.8464 235.881 28.306C236.97 28.7656 237.913 29.5145 238.607 30.4715C239.025 30.9779 239.324 31.5721 239.481 32.21C239.638 32.8479 239.649 33.5129 239.513 34.1556C239.277 35.7698 239.239 37.4068 239.4 39.0301C239.447 40.5049 239.409 41.9812 239.286 43.4516C239.23 44.7547 239.116 46.0028 239.116 47.3059C239.083 47.8526 239.239 48.394 239.56 48.8382C239.88 49.2825 240.344 49.6022 240.874 49.7432C241.406 49.8922 241.92 50.1014 242.405 50.3666C242.535 50.4559 242.644 50.5737 242.723 50.7112C242.801 50.8487 242.847 51.0023 242.858 51.1603C242.858 51.3868 242.517 51.7274 242.291 51.8413C241.748 52.045 241.17 52.1411 240.591 52.1242C238.436 52.1242 236.226 52.2382 234.015 52.0679C233.458 52.0018 232.919 51.8283 232.428 51.5571C232.247 51.4666 232.094 51.3303 231.984 51.1618C231.873 50.9934 231.809 50.7987 231.798 50.5976C231.786 50.3964 231.828 50.1957 231.919 50.0159C232.01 49.836 232.146 49.6832 232.315 49.5729C232.882 49.2338 233.618 49.1761 234.071 48.7229C235.035 47.7027 234.355 46.1154 234.355 44.8123C234.346 43.3541 234.422 41.8966 234.582 40.4472C234.723 38.6548 234.723 36.8541 234.582 35.0618C234.549 34.1904 234.185 33.3646 233.563 32.7534C232.941 32.1422 232.109 31.792 231.237 31.7745C230.505 31.6606 229.759 31.6606 229.026 31.7745C226.533 32.1151 225.456 33.3055 225.512 35.8554C225.626 39.0864 225.853 43.3952 226.022 46.6262C226.007 47.233 226.132 47.8351 226.388 48.3855C226.644 48.936 227.023 49.4198 227.497 49.7995C228.347 50.5368 228.006 51.4445 226.873 51.7273C226.489 51.8493 226.083 51.8881 225.683 51.8413C223.908 51.6413 222.113 51.6982 220.354 52.0102C219.707 52.0975 219.049 52.0398 218.427 51.8413C218.073 51.6854 217.79 51.4022 217.634 51.0477C217.554 50.8064 217.568 50.544 217.673 50.3127C217.778 50.0814 217.967 49.8982 218.201 49.7995C218.62 49.5772 219.055 49.3881 219.504 49.2338C219.864 49.1439 220.181 48.9295 220.399 48.6285C220.617 48.3276 220.721 47.9593 220.694 47.5888V46.342C220.694 42.8282 220.751 44.4718 220.751 40.958C220.751 40.3909 220.921 34.8353 221.091 34.2682C221.326 33.4967 221.365 32.6789 221.205 31.8885C221.035 30.4972 220.978 29.0943 221.035 27.6937C221.771 24.2362 220.977 23.7817 220.977 20.5507C220.986 19.925 220.757 19.3193 220.336 18.8563C219.915 18.3933 219.334 18.1076 218.71 18.0571C218.147 17.9661 217.596 17.8141 217.066 17.604C216.67 17.4337 216.67 16.754 216.896 16.3572C216.982 16.2331 217.099 16.1348 217.237 16.073L217.463 15.9604C217.703 15.8338 217.949 15.7202 218.201 15.6198C219.504 15.109 220.865 14.5996 222.225 14.1465C222.592 13.9988 222.971 13.8848 223.358 13.806C223.763 13.7273 224.183 13.8069 224.531 14.0283C224.879 14.2498 225.129 14.5962 225.23 14.9964C225.771 16.4636 226.003 18.0271 225.909 19.5882C225.699 22.152 225.642 24.7262 225.739 27.2968C225.739 28.2031 225.683 30.1872 226.759 29.6202C228.506 28.647 230.437 28.0489 232.428 27.864Z" fill="#231F20"/>
<path d="M253.57 28.3726C253.829 28.6701 254.057 28.993 254.251 29.3365C254.354 29.5115 254.494 29.6617 254.661 29.7764C254.829 29.8911 255.019 29.9674 255.22 30C255.42 30.0325 255.625 30.0204 255.82 29.9646C256.015 29.9088 256.195 29.8106 256.348 29.677C256.745 29.4491 257.142 29.0536 257.539 28.7694C260.656 26.5587 263.774 27.4086 266.381 29.563C266.781 29.9554 267.073 30.4431 267.231 30.9801C267.554 31.8147 267.746 32.6944 267.798 33.5877V41.4103C267.798 44.5273 266.608 47.9285 269.159 49.233C269.429 49.3327 269.664 49.5092 269.835 49.7407C270.006 49.9722 270.106 50.2487 270.122 50.5361C270.112 50.7603 270.051 50.9793 269.943 51.176C269.834 51.3727 269.682 51.5418 269.498 51.6703C269.359 51.7679 269.207 51.8443 269.045 51.8968C268.9 51.9543 268.748 51.9922 268.592 52.0094C268.427 52.069 268.256 52.1073 268.081 52.1234H267.798C265.985 52.1234 265.247 52.0094 263.321 52.0671C261.337 52.1234 259.976 50.65 261.28 49.4596C262.754 48.2128 262.527 47.1349 262.81 45.435C263.188 42.6934 263.283 39.9202 263.093 37.1592C263.036 36.5921 263.036 36.025 262.924 35.4579C262.527 33.0769 261.733 32.2846 259.352 32.0004C258.397 31.8734 257.429 32.1043 256.633 32.6486C255.838 33.1928 255.272 34.012 255.045 34.9485C254.648 37.2718 254.875 39.937 254.59 42.3166C254.364 44.0742 254.931 45.8318 255.271 47.588C255.351 47.9875 255.527 48.3615 255.784 48.6777C256.041 48.994 256.37 49.243 256.745 49.4033C257.011 49.5179 257.239 49.7073 257.4 49.9486C257.561 50.1898 257.649 50.4726 257.652 50.7627C257.652 51.3861 256.915 51.8969 256.007 51.9532C255.008 52.0289 254.005 52.0477 253.003 52.0095C251.55 51.8489 250.082 51.8873 248.639 52.1235C248.359 52.2051 248.06 52.1877 247.791 52.0742C247.522 51.9606 247.301 51.7578 247.165 51.5001C247.018 51.1956 246.99 50.8479 247.084 50.5235C247.178 50.1992 247.389 49.9211 247.675 49.7425C250 48.552 250.227 46.5678 250.113 44.3571C250.056 43.168 249.886 41.5806 249.942 40.3902C250 38.9154 250.056 36.7624 250.056 35.2877C250.052 34.7623 249.921 34.2458 249.674 33.782C249.428 33.3183 249.073 32.9209 248.639 32.6238C248.129 32.2846 246.996 32.1707 246.938 31.3207C246.882 30.6973 251.077 28.1461 251.756 27.8632C252.664 27.5226 252.947 27.6928 253.57 28.3726Z" fill="#231F20"/>
<path d="M285.2 32.4539C284.664 31.7251 283.938 31.1567 283.102 30.8103C281.629 30.2432 281.344 30.1306 280.212 31.1508C279.817 31.5811 279.608 32.1492 279.629 32.7324C279.651 33.3155 279.9 33.867 280.324 34.2678C283.272 37.4987 286.844 38.2924 288.828 42.1481L289.054 42.5436C289.961 44.2449 289.337 47.0227 288.487 48.3821C287.916 49.3726 287.122 50.2163 286.167 50.846C285.213 51.4758 284.125 51.8743 282.989 52.0098C281.823 52.2197 280.627 52.1975 279.47 51.9447C278.312 51.6919 277.216 51.2134 276.243 50.5365C275.696 50.1926 275.274 49.6819 275.04 49.0799C274.805 48.4778 274.77 47.8163 274.94 47.1929C275.07 46.5457 275.279 45.917 275.564 45.3214C276.017 44.4151 276.867 44.4151 277.434 45.3214C277.774 45.8885 278.057 46.4556 278.398 47.0227L278.965 47.8163C280.551 49.7428 282.365 49.8568 284.179 48.1555C285.427 47.0227 285.369 45.7759 284.179 44.5854C282.33 42.8023 280.339 41.1716 278.227 39.7095C276.977 38.809 276.097 37.4836 275.753 35.9814C275.408 34.4791 275.623 32.9029 276.357 31.5476C276.752 30.7734 277.314 30.0959 278.001 29.5635C280.098 27.5794 284.01 27.7496 286.22 28.8261C286.589 28.9622 286.927 29.171 287.214 29.4403C287.5 29.7095 287.729 30.0337 287.888 30.3935C288.047 30.7532 288.131 31.1413 288.137 31.5344C288.142 31.9275 288.069 32.3178 287.92 32.6819C287.75 33.2476 287.58 34.6083 286.503 34.2115C285.766 33.9286 285.596 33.021 285.2 32.4539Z" fill="#231F20"/>
<path fill-rule="evenodd" clip-rule="evenodd" d="M33.9456 37.3703C31.7573 36.0021 31.6155 34.0142 36.8411 31.8372C46.0651 27.9935 63.5612 32.8294 76.4307 25.1077C89.6808 17.1576 77.7557 3.74188 69.8056 5.48097C78.6666 12.1889 75.0228 20.3568 48.8236 16.7436C42.0201 15.6449 35.0711 15.8263 28.3341 17.2784C22.7676 18.5655 14.1133 23.9016 15.4693 30.444C16.5281 35.553 24.3548 37.1274 33.9456 37.3703Z" fill="#1A3021"/>
<path d="M92.8563 67.0442C93.9119 62.745 95.3192 56.7983 92.6736 54.4379C90.6579 52.6394 87.6198 53.0889 85.936 53.5372C85.4763 51.2366 84.5197 49.0641 83.133 47.1717C81.7463 45.2793 79.963 43.7126 77.9078 42.5812C74.4249 40.6268 69.2978 39.8249 63.7178 39.5879C66.3373 40.9869 68.1412 42.7901 68.8496 44.8413C69.636 47.1171 69.0117 49.5372 67.0899 51.6567C63.1448 56.0083 56.9636 57.5992 54.5342 58.0761C54.5778 60.5318 53.9003 62.9464 52.5857 65.0211C52.4316 65.2517 52.1968 65.4163 51.9276 65.4828L35.0039 69.6702C36.1927 71.8555 36.787 74.3146 36.7276 76.8016C36.7276 76.8016 55.6452 78.8671 74.3167 72.3834C74.4592 72.3309 74.5974 72.2677 74.7303 72.1943C77.2453 71.3771 79.5323 69.9785 81.4058 68.1121C83.2792 66.2458 84.6864 63.9641 85.5131 61.4522C86.2253 61.308 86.9134 61.2922 86.9604 61.7569C87.0864 63.3828 86.8259 65.0155 86.2003 66.5215C84.9346 67.5366 83.3204 68.9821 82.8396 69.4631C82.5725 69.694 82.3717 69.992 82.258 70.3263C82.1443 70.6606 82.1216 71.0191 82.1925 71.3651C82.3744 71.5801 82.9417 71.4552 83.4875 71.3725C84.0332 71.2898 84.2764 71.2328 84.2764 71.2328C84.2764 71.2328 84.5741 72.0707 85.0703 72.2195C85.5664 72.3684 87.1398 71.2989 87.1398 71.2989C87.1398 71.2989 87.5669 72.2271 87.8158 72.2337C88.4384 72.1587 89.0109 71.855 89.4222 71.3816C89.5161 71.2201 89.6211 71.0654 89.7364 70.9185C89.7364 70.9185 90.7784 71.4478 91.0264 71.3651C91.2745 71.2824 91.3572 70.6507 91.3572 70.3893C91.3368 70.0275 91.2871 69.6679 91.2084 69.3142C91.6241 69.1081 91.9876 68.8106 92.2719 68.444C92.4855 68.2425 92.6335 67.9814 92.6966 67.6947L92.7056 67.658C92.7781 67.4595 92.8286 67.2536 92.8563 67.0442Z" fill="#8EA986"/>
<path d="M65.0918 45.568C64.2325 43.083 60.9232 40.9452 56.239 39.7617C54.9646 39.8311 53.6635 39.9046 52.3357 39.9821C34.4919 41.0106 14.2642 42.1728 12.1313 31.8893C11.5861 29.4716 12.0211 26.9365 13.3411 24.8389C11.2575 26.5116 9.54226 28.5971 8.30305 30.9643C7.0075 33.4448 6.14977 36.1303 5.76762 38.9026C4.68683 38.8371 3.61385 39.1231 2.70908 39.7179C1.80432 40.3127 1.11635 41.1844 0.74802 42.2026C-1.05849 46.6126 7.59802 52.2434 7.53687 52.1303C7.53129 52.12 7.59375 52.1447 7.6845 52.1836C6.69203 53.1286 5.60912 53.9738 4.45136 54.7071C2.27884 55.9822 1.26343 56.5491 1.16896 56.8087C1.0745 57.0685 1.54682 57.163 1.54682 57.163C1.54682 57.163 1.04953 57.5881 1.15654 57.895C1.26345 58.202 2.94011 58.202 3.67214 57.895C4.00351 57.7648 4.32681 57.615 4.64032 57.4464C4.64032 57.4464 4.49862 58.3437 5.01818 58.3673C5.9363 58.2815 6.84041 58.0832 7.71018 57.7769C8.25327 57.5644 8.77282 57.3755 8.77282 57.3755C8.77282 57.3755 8.77282 58.1784 9.19782 58.2256C9.62291 58.2728 12.5747 56.4319 13.9679 55.3806C14.1184 55.2671 14.2637 55.1446 14.4065 55.0198C25.8186 62.9116 40.4063 60.8973 50.5161 59.9473C50.6587 59.0692 50.6911 58.1768 50.6125 57.2906C50.5746 56.9987 50.6541 56.7036 50.8333 56.4701C51.0126 56.2366 51.2771 56.0836 51.569 56.0447C51.6474 56.0345 59.4503 54.9449 63.7863 50.1627C65.1765 48.6293 65.6154 47.0837 65.0918 45.568ZM29.4805 51.7031C24.017 51.4762 18.4152 50.2763 14.0328 46.7576C9.57437 43.4363 7.38707 37.104 9.44472 31.9499C8.02318 44.2733 20.0321 47.482 29.7654 49.0452C40.0811 50.3708 50.594 51.2395 60.9494 49.6908C50.7594 52.5466 39.965 52.4061 29.4805 51.7031Z" fill="#37583C"/>
</svg>
