<svg xmlns="http://www.w3.org/2000/svg" width="19" height="21" viewBox="0 0 19 21" fill="none">
  <path d="M0 2.99805C0 1.61914 1.0994 0.498047 2.45161 0.498047H8.58065V5.49805C8.58065 6.18945 9.12843 6.74805 9.80645 6.74805H14.7097V12.373H6.74194C5.38972 12.373 4.29032 13.4941 4.29032 14.873V20.498H2.45161C1.0994 20.498 0 19.377 0 17.998V2.99805ZM14.7097 5.49805H9.80645V0.498047L14.7097 5.49805ZM6.74194 14.248H7.96774C9.15141 14.248 10.1129 15.2285 10.1129 16.4355C10.1129 17.6426 9.15141 18.623 7.96774 18.623H7.35484V19.873C7.35484 20.2168 7.07903 20.498 6.74194 20.498C6.40484 20.498 6.12903 20.2168 6.12903 19.873V17.998V14.873C6.12903 14.5293 6.40484 14.248 6.74194 14.248ZM7.96774 17.373C8.47722 17.373 8.8871 16.9551 8.8871 16.4355C8.8871 15.916 8.47722 15.498 7.96774 15.498H7.35484V17.373H7.96774ZM11.6452 14.248H12.871C13.8861 14.248 14.7097 15.0879 14.7097 16.123V18.623C14.7097 19.6582 13.8861 20.498 12.871 20.498H11.6452C11.3081 20.498 11.0323 20.2168 11.0323 19.873V14.873C11.0323 14.5293 11.3081 14.248 11.6452 14.248ZM12.871 19.248C13.2081 19.248 13.4839 18.9668 13.4839 18.623V16.123C13.4839 15.7793 13.2081 15.498 12.871 15.498H12.2581V19.248H12.871ZM15.9355 14.873C15.9355 14.5293 16.2113 14.248 16.5484 14.248H18.3871C18.7242 14.248 19 14.5293 19 14.873C19 15.2168 18.7242 15.498 18.3871 15.498H17.1613V16.748H18.3871C18.7242 16.748 19 17.0293 19 17.373C19 17.7168 18.7242 17.998 18.3871 17.998H17.1613V19.873C17.1613 20.2168 16.8855 20.498 16.5484 20.498C16.2113 20.498 15.9355 20.2168 15.9355 19.873V17.373V14.873Z" fill="#37583C"/>
</svg>