<svg width="22" height="22" viewBox="0 0 22 22" fill="none" xmlns="http://www.w3.org/2000/svg">
<path id="Path 315" d="M21.667 20.0242L17.3085 15.6848C18.5222 14.0985 19.1725 12.156 19.1576 10.162C19.1651 8.95109 18.9311 7.75076 18.4692 6.6306C18.0072 5.51043 17.3265 4.49272 16.4665 3.63648C15.6065 2.78024 14.5843 2.10251 13.4593 1.64259C12.3342 1.18266 11.1286 0.949699 9.91237 0.957207C8.69617 0.949699 7.49057 1.18266 6.36549 1.64259C5.2404 2.10251 4.21822 2.78024 3.35822 3.63648C2.49821 4.49272 1.8175 5.51043 1.35556 6.6306C0.893614 7.75076 0.659628 8.95109 0.667169 10.162C0.659628 11.3729 0.893614 12.5732 1.35556 13.6933C1.8175 14.8135 2.49821 15.8312 3.35822 16.6875C4.21822 17.5437 5.2404 18.2214 6.36549 18.6814C7.49057 19.1413 8.69617 19.3742 9.91237 19.3667C11.9152 19.3816 13.8662 18.7341 15.4595 17.5258L19.818 21.8652L21.667 20.0242ZM3.30866 10.162C3.30001 9.29616 3.46491 8.43732 3.79371 7.63574C4.12252 6.83415 4.60862 6.10592 5.22356 5.49367C5.83851 4.88142 6.56994 4.39744 7.37504 4.07008C8.18015 3.74271 9.04276 3.57853 9.91237 3.58714C10.782 3.57853 11.6446 3.74271 12.4497 4.07008C13.2548 4.39744 13.9862 4.88142 14.6012 5.49367C15.2161 6.10592 15.7022 6.83415 16.031 7.63574C16.3598 8.43732 16.5247 9.29616 16.5161 10.162C16.5247 11.0278 16.3598 11.8866 16.031 12.6882C15.7022 13.4898 15.2161 14.218 14.6012 14.8303C13.9862 15.4425 13.2548 15.9265 12.4497 16.2539C11.6446 16.5812 10.782 16.7454 9.91237 16.7368C9.04276 16.7454 8.18015 16.5812 7.37504 16.2539C6.56994 15.9265 5.83851 15.4425 5.22356 14.8303C4.60862 14.218 4.12252 13.4898 3.79371 12.6882C3.46491 11.8866 3.30001 11.0278 3.30866 10.162Z" fill="#337D58"/>
</svg>
