<svg width="24" height="18" viewBox="0 0 24 18" fill="none" xmlns="http://www.w3.org/2000/svg">
<path d="M22.5396 3.69002C22.4208 3.21543 22.1789 2.78059 21.8382 2.42943C21.4976 2.07826 21.0703 1.8232 20.5996 1.69002C18.8796 1.27002 11.9996 1.27002 11.9996 1.27002C11.9996 1.27002 5.1196 1.27002 3.3996 1.73002C2.92884 1.8632 2.50157 2.11826 2.16094 2.46943C1.82031 2.82059 1.57838 3.25543 1.4596 3.73002C1.14481 5.47558 0.990831 7.24633 0.999595 9.02002C0.988374 10.8071 1.14236 12.5913 1.4596 14.35C1.59055 14.8099 1.8379 15.2282 2.17774 15.5645C2.51758 15.9008 2.93842 16.1438 3.3996 16.27C5.1196 16.73 11.9996 16.73 11.9996 16.73C11.9996 16.73 18.8796 16.73 20.5996 16.27C21.0703 16.1368 21.4976 15.8818 21.8382 15.5306C22.1789 15.1794 22.4208 14.7446 22.5396 14.27C22.852 12.5376 23.0059 10.7804 22.9996 9.02002C23.0108 7.23297 22.8568 5.44872 22.5396 3.69002Z" stroke="#FF0000" stroke-width="2" stroke-linecap="round" stroke-linejoin="round"/>
<path d="M9.75 12.29L15.5 9.02L9.75 5.75V12.29Z" stroke="#FF0000" stroke-width="2" stroke-linecap="round" stroke-linejoin="round"/>
</svg>
